<?xml version="1.0" encoding="utf-8"?>
<!DOCTYPE svg PUBLIC "-//W3C//DTD SVG 1.1//EN" "http://www.w3.org/Graphics/SVG/1.1/DTD/svg11.dtd">
<svg version="1.1" id="Warstwa_1" xmlns="http://www.w3.org/2000/svg" xmlns:xlink="http://www.w3.org/1999/xlink" x="0px" y="0px"
	 width="30px" height="40px" viewBox="0 0 30 40" style="enable-background:new 0 0 30 40;" xml:space="preserve">
<style type="text/css">
<![CDATA[
	.st0{fill:#F7FEFF;}
	.scroller {
	  fill: #F7FEFF;
	  -webkit-animation: updown 1s infinite;
	  -moz-animation: updown 1s infinite;
	  -o-animation: updown 1s infinite;
	  animation: updown 1s infinite;
	}

	@-webkit-keyframes updown {
		0% {
			-webkit-transform: translate(0, 0);
			transform: translate(0, 0)
		}
		50% {
			-webkit-transform: translate(0, 3px);
			transform: translate(0, 3px)
		}
		100% {
			-webkit-transform: translate(0, 0);
			transform: translate(0, 0)
		}
	}
	@-moz-keyframes updown {
		0% {
			-moz-transform: translate(0, 0);
			transform: translate(0, 0)
		}
		50% {
			-moz-transform: translate(0, 3px);
			transform: translate(0, 3px)
		}
		100% {
			-moz-transform: translate(0, 0);
			transform: translate(0, 0)
		}
	}
	@-o-keyframes updown {
		0% {
			-o-transform: translate(0, 0);
			transform: translate(0, 0)
		}
		50% {
			-o-transform: translate(0, 3px);
			transform: translate(0, 3px)
		}
		100% {
			-o-transform: translate(0, 0);
			transform: translate(0, 0)
		}
	}
	@keyframes updown {
		0% {
			-webkit-transform: translate(0, 0);
			transform: translate(0, 0)
		}
		50% {
			-webkit-transform: translate(0, 3px);
			transform: translate(0, 3px)
		}
		100% {
			-webkit-transform: translate(0, 0);
			transform: translate(0, 0)
		}
	}
]]>
</style>
<path class="st0" d="M15,0C7.2,0,0.8,6.5,0.8,14.4v5.4c0,0.2,0,0.3,0,0.5v5.4C0.8,33.5,7.2,40,15,40c7.8,0,14.2-6.5,14.2-14.4v-5.4
	c0-0.1,0-0.2,0-0.3v-5.4C29.2,6.5,22.8,0,15,0z M15,1.6c7,0,12.6,5.7,12.6,12.8v7.8H2.4v-7.8C2.4,7.3,8,1.6,15,1.6z M2.4,23.8h25.3
	v1.8c0,7.1-5.6,12.8-12.6,12.8c-7,0-12.6-5.7-12.6-12.8V23.8z"/>
<path class="scroller st0" d="M14.8,4.1C14.8,4.1,14.8,4.1,14.8,4.1c-0.1,0-0.1,0-0.2,0c0,0,0,0-0.1,0c-0.1,0-0.1,0.1-0.1,0.1
	c0,0-0.1,0-0.1,0.1c0,0-0.1,0.1-0.1,0.1l-3.1,3.1c-0.3,0.3-0.3,0.8,0,1.2C11.5,9,12,9,12.3,8.7l1.8-1.8v7.3l-1.8-1.8
	c-0.2-0.2-0.5-0.3-0.7-0.2c-0.3,0.1-0.5,0.3-0.6,0.6c-0.1,0.3,0,0.6,0.2,0.8l3.2,3.2c0.1,0.2,0.4,0.2,0.6,0.2s0.4-0.1,0.6-0.2
	l3.2-3.2c0.3-0.3,0.3-0.8,0-1.1c-0.3-0.3-0.8-0.3-1.1,0l-1.8,1.8V6.8l1.8,1.8c0.3,0.3,0.8,0.3,1.1,0c0.3-0.3,0.3-0.8,0-1.2l-3.1-3.1
	c0,0-0.1-0.1-0.1-0.1c-0.1-0.1-0.3-0.2-0.4-0.2C15,4.1,14.9,4.1,14.8,4.1z">
</path>
</svg>
